<svg width="263" height="60" viewBox="0 0 263 60" fill="none" xmlns="http://www.w3.org/2000/svg">
<g clip-path="url(#clip0_33_132)">
<g opacity="0.8">
<path d="M135.949 14.1535C133.187 12.6767 130.091 11.9372 126.656 11.9372C123.222 11.9372 119.884 12.7106 117.037 14.2526C114.19 15.797 111.971 17.936 110.386 20.6767C108.798 23.4151 108.005 26.5257 108.005 30.0012C108.005 33.4767 108.829 36.5777 110.482 39.2943C112.133 42.0109 114.46 44.1523 117.46 45.7184C120.459 47.2846 123.959 48.0653 127.959 48.0653C131.132 48.0653 133.936 47.577 136.372 46.5982C138.806 45.6193 140.829 44.2175 142.436 42.3928L137.025 36.5245C135.85 37.6556 134.557 38.5039 133.146 39.0671C131.732 39.6326 130.112 39.9154 128.288 39.9154C126.156 39.9154 124.331 39.536 122.809 38.7746C121.286 38.0157 120.092 36.916 119.222 35.4804C118.743 34.69 118.4 33.8199 118.185 32.8725H144.718C144.761 32.4375 144.805 31.971 144.848 31.4707C144.892 30.9704 144.914 30.5257 144.914 30.1341C144.914 26.3517 144.109 23.113 142.502 20.4181C140.892 17.7233 138.707 15.6351 135.947 14.1583L135.949 14.1535ZM122.125 20.7734C123.449 20.0145 124.984 19.6326 126.722 19.6326C128.459 19.6326 129.982 20.0145 131.287 20.7734C132.592 21.5347 133.612 22.5885 134.352 23.9372C134.842 24.8314 135.157 25.832 135.302 26.9366H118.059C118.228 25.8441 118.55 24.8532 119.026 23.9686C119.766 22.5982 120.798 21.5347 122.125 20.7734Z" fill="white"/>
<path d="M178.533 13.6C176.336 12.4906 173.849 11.9372 171.067 11.9372C168.068 11.9372 165.395 12.568 163.045 13.8272C161.658 14.5716 160.467 15.5118 159.459 16.6356V12.4568H149.743V47.5408H159.915V30.1946C159.915 27.9782 160.273 26.1946 160.991 24.8459C161.709 23.4997 162.707 22.4773 163.99 21.7813C165.271 21.0852 166.719 20.7372 168.326 20.7372C170.586 20.7372 172.336 21.4115 173.576 22.7577C174.816 24.1063 175.435 26.1921 175.435 29.0175V47.5384H185.607V27.4538C185.607 23.8888 184.977 20.9643 183.715 18.6828C182.453 16.4012 180.725 14.7045 178.531 13.5952L178.533 13.6Z" fill="white"/>
<path d="M217.303 12.4592L207.183 36.3625L197.479 12.4592H187.045L201.781 47.5432H212.218L227.019 12.4592H217.303Z" fill="white"/>
<path d="M260.213 20.4133C258.603 17.7184 256.418 15.6302 253.658 14.1535C250.896 12.6767 247.8 11.9372 244.365 11.9372C240.931 11.9372 237.593 12.7106 234.746 14.2526C231.899 15.797 229.68 17.9359 228.095 20.6767C226.507 23.4151 225.714 26.5257 225.714 30.0012C225.714 33.4767 226.538 36.5776 228.191 39.2943C229.842 42.0109 232.169 44.1523 235.169 45.7184C238.168 47.2846 241.668 48.0653 245.668 48.0653C248.841 48.0653 251.645 47.577 254.081 46.5982C256.515 45.6193 258.538 44.2175 260.145 42.3927L254.734 36.5245C253.559 37.6556 252.266 38.5039 250.855 39.0671C249.441 39.6326 247.821 39.9154 245.997 39.9154C243.865 39.9154 242.04 39.5359 240.52 38.7746C238.997 38.0157 237.803 36.916 236.933 35.4804C236.455 34.69 236.111 33.8199 235.896 32.8725H262.429C262.473 32.4375 262.516 31.971 262.56 31.4707C262.603 30.9704 262.625 30.5257 262.625 30.1341C262.625 26.3517 261.82 23.113 260.213 20.4181V20.4133ZM239.834 20.7734C241.16 20.0145 242.693 19.6326 244.43 19.6326C246.168 19.6326 247.691 20.0145 248.996 20.7734C250.301 21.5347 251.321 22.5885 252.061 23.9372C252.551 24.8314 252.866 25.832 253.011 26.9366H235.768C235.937 25.8441 236.259 24.8532 236.735 23.9686C237.475 22.5982 238.507 21.5347 239.834 20.7734Z" fill="white"/>
</g>
<path d="M85.5831 21.6145L66.7746 10.8085L47.9686 0L39.7825 4.73474L77.397 26.3492L71.026 30.035L66.8979 32.423L29.2834 10.8085L21.0973 15.5215L58.7118 37.1577L52.3408 40.8435L48.2127 43.2314L0.029003 15.5432L0 32.3118L48.1861 60L58.6852 53.9287L58.6997 44.4979L66.8713 49.194L77.3704 43.1202L77.3849 33.6894L85.5565 38.3855L96.0556 32.3118L96.0822 15.5432L85.5831 21.6145Z" fill="white"/>
<path d="M66.898 32.423L29.2835 10.8085L29.2666 20.2369L58.7119 37.1577L52.3409 40.8435L66.8714 49.194L66.898 32.423Z" fill="white"/>
<path d="M48.2127 43.2314L0.029003 15.5432L0 32.3118L48.1861 60L48.2127 43.2314Z" fill="white"/>
<path d="M47.9686 0L47.9517 9.4284L77.397 26.3492L71.026 30.035L85.5565 38.3855L85.5831 21.6145L66.7746 10.8085L47.9686 0Z" fill="white"/>
<path d="M29.2668 20.2369L29.2838 10.8085L21.0977 15.5432L29.2668 20.2369Z" fill="white"/>
<path d="M39.7827 4.73474L47.9519 9.4284L47.9688 0L39.7827 4.73474Z" fill="white"/>
<path d="M48.1865 60L58.6856 53.9287L58.7122 37.1577L48.2131 43.2314L48.1865 60Z" fill="white"/>
<path d="M85.5832 21.6145L85.5566 38.3855L96.0557 32.3118L96.0823 15.5432L85.5832 21.6145Z" fill="white"/>
<path d="M66.8716 49.194L77.3707 43.1202L77.3973 26.3492L66.8982 32.423L66.8716 49.194Z" fill="white"/>
<path d="M66.8956 32.423L29.2811 10.8085L29.2666 20.2369L58.7095 37.1577L52.3385 40.8435L66.869 49.194L66.8956 32.423Z" fill="white"/>
<path d="M48.2103 43.2314L0.0265861 15.5432L0 32.3118L48.1837 60L48.2103 43.2314Z" fill="white"/>
<path d="M47.9662 0L47.9517 9.4284L77.3946 26.3492L71.0236 30.035L85.5541 38.3855L85.5807 21.6145L66.7722 10.8085L47.9662 0Z" fill="white"/>
<path d="M29.2639 20.2369L29.2808 10.8085L21.0947 15.5432L29.2639 20.2369Z" fill="#FAFAFF"/>
<path d="M39.7803 4.73474L47.9495 9.4284L47.9664 0L39.7803 4.73474Z" fill="#FAFAFF"/>
<path d="M48.1836 60L58.6827 53.9287L58.7093 37.1577L48.2102 43.2314L48.1836 60Z" fill="#FAFAFF"/>
<path d="M85.5808 21.6145L85.5542 38.3855L96.0533 32.3118L96.0799 15.5432L85.5808 21.6145Z" fill="#FAFAFF"/>
<path d="M66.8691 49.194L77.3682 43.1202L77.3948 26.3492L66.8957 32.423L66.8691 49.194Z" fill="#FAFAFF"/>
</g>
<defs>
<clipPath id="clip0_33_132">
<rect width="262.625" height="60" fill="white"/>
</clipPath>
</defs>
</svg>
