<svg width="57" height="57" viewBox="0 0 57 57" fill="none" xmlns="http://www.w3.org/2000/svg">
<circle cx="28.5" cy="28.5" r="28.5" fill="#FAFAFF"/>
<g clip-path="url(#clip0_300_723)">
<path d="M35.4167 19.8333H24.8411C24.2058 18.7379 23.0215 18 21.6667 18C19.6445 18 18 19.6445 18 21.6667V35.4167C18 37.9439 20.0561 40 22.5833 40H35.4167C37.9439 40 40 37.9439 40 35.4167V24.4167C40 21.8894 37.9439 19.8333 35.4167 19.8333ZM38.009 23.5H33.5833C33.0773 23.5 32.6667 23.0893 32.6667 22.5833V21.6667H35.4167C36.612 21.6667 37.6304 22.433 38.009 23.5ZM19.8333 21.6667C19.8333 20.6556 20.6556 19.8333 21.6667 19.8333C22.6778 19.8333 23.5 20.6556 23.5 21.6667V32.6667C23.5 33.6778 22.6778 34.5 21.6667 34.5C20.6556 34.5 19.8333 33.6778 19.8333 32.6667V21.6667ZM35.4167 38.1667H22.5833C21.2184 38.1667 20.0836 37.1675 19.87 35.8622C20.4017 36.1619 21.014 36.3333 21.6667 36.3333C23.6888 36.3333 25.3333 34.6888 25.3333 32.6667V21.6667H30.8333V22.5833C30.8333 24.0995 32.0672 25.3333 33.5833 25.3333H38.1667V35.4167C38.1667 36.9328 36.9328 38.1667 35.4167 38.1667ZM32.6667 28.0833C32.6667 28.5893 32.256 29 31.75 29C31.244 29 30.8333 28.5893 30.8333 28.0833C30.8333 27.5773 31.244 27.1667 31.75 27.1667C32.256 27.1667 32.6667 27.5773 32.6667 28.0833ZM29 28.0833C29 28.5893 28.5893 29 28.0833 29C27.5773 29 27.1667 28.5893 27.1667 28.0833C27.1667 27.5773 27.5773 27.1667 28.0833 27.1667C28.5893 27.1667 29 27.5773 29 28.0833ZM36.3333 28.0833C36.3333 28.5893 35.9227 29 35.4167 29C34.9107 29 34.5 28.5893 34.5 28.0833C34.5 27.5773 34.9107 27.1667 35.4167 27.1667C35.9227 27.1667 36.3333 27.5773 36.3333 28.0833ZM32.6667 31.75C32.6667 32.256 32.256 32.6667 31.75 32.6667C31.244 32.6667 30.8333 32.256 30.8333 31.75C30.8333 31.244 31.244 30.8333 31.75 30.8333C32.256 30.8333 32.6667 31.244 32.6667 31.75ZM29 31.75C29 32.256 28.5893 32.6667 28.0833 32.6667C27.5773 32.6667 27.1667 32.256 27.1667 31.75C27.1667 31.244 27.5773 30.8333 28.0833 30.8333C28.5893 30.8333 29 31.244 29 31.75ZM36.3333 31.75C36.3333 32.256 35.9227 32.6667 35.4167 32.6667C34.9107 32.6667 34.5 32.256 34.5 31.75C34.5 31.244 34.9107 30.8333 35.4167 30.8333C35.9227 30.8333 36.3333 31.244 36.3333 31.75ZM32.6667 35.4167C32.6667 35.9227 32.256 36.3333 31.75 36.3333C31.244 36.3333 30.8333 35.9227 30.8333 35.4167C30.8333 34.9107 31.244 34.5 31.75 34.5C32.256 34.5 32.6667 34.9107 32.6667 35.4167ZM29 35.4167C29 35.9227 28.5893 36.3333 28.0833 36.3333C27.5773 36.3333 27.1667 35.9227 27.1667 35.4167C27.1667 34.9107 27.5773 34.5 28.0833 34.5C28.5893 34.5 29 34.9107 29 35.4167ZM36.3333 35.4167C36.3333 35.9227 35.9227 36.3333 35.4167 36.3333C34.9107 36.3333 34.5 35.9227 34.5 35.4167C34.5 34.9107 34.9107 34.5 35.4167 34.5C35.9227 34.5 36.3333 34.9107 36.3333 35.4167Z" fill="#263676"/>
</g>
<defs>
<clipPath id="clip0_300_723">
<rect width="22" height="22" fill="white" transform="translate(18 18)"/>
</clipPath>
</defs>
</svg>
