<svg width="40" height="40" viewBox="0 0 40 40" fill="none" xmlns="http://www.w3.org/2000/svg">
<rect x="0.5" y="0.5" width="39" height="39" rx="19.5" fill="#FBD007" stroke="#FBD007"/>
<g clip-path="url(#clip0_190_560)">
<path d="M14.6667 25.3333C13.196 25.3333 12 24.1373 12 22.6667V14.6667C12 13.196 13.196 12 14.6667 12C16.1373 12 17.3333 13.196 17.3333 14.6667V22.6667C17.3333 24.1373 16.1373 25.3333 14.6667 25.3333ZM24.6667 13.3333H18.438C18.586 13.7507 18.6667 14.1993 18.6667 14.6667V22.6667C18.6667 24.8727 16.8727 26.6667 14.6667 26.6667C13.7387 26.6667 12.884 26.3493 12.2047 25.8173C12.674 27.09 13.8993 28 15.3333 28H24.6667C26.5047 28 28 26.5047 28 24.6667V16.6667C28 14.8287 26.5047 13.3333 24.6667 13.3333ZM20.6667 25.3333C20.2987 25.3333 20 25.0347 20 24.6667C20 24.2987 20.2987 24 20.6667 24C21.0347 24 21.3333 24.2987 21.3333 24.6667C21.3333 25.0347 21.0347 25.3333 20.6667 25.3333ZM20.6667 22.6667C20.2987 22.6667 20 22.368 20 22C20 21.632 20.2987 21.3333 20.6667 21.3333C21.0347 21.3333 21.3333 21.632 21.3333 22C21.3333 22.368 21.0347 22.6667 20.6667 22.6667ZM20.6667 20C20.2987 20 20 19.7013 20 19.3333C20 18.9653 20.2987 18.6667 20.6667 18.6667C21.0347 18.6667 21.3333 18.9653 21.3333 19.3333C21.3333 19.7013 21.0347 20 20.6667 20ZM23.3333 25.3333C22.9653 25.3333 22.6667 25.0347 22.6667 24.6667C22.6667 24.2987 22.9653 24 23.3333 24C23.7013 24 24 24.2987 24 24.6667C24 25.0347 23.7013 25.3333 23.3333 25.3333ZM23.3333 22.6667C22.9653 22.6667 22.6667 22.368 22.6667 22C22.6667 21.632 22.9653 21.3333 23.3333 21.3333C23.7013 21.3333 24 21.632 24 22C24 22.368 23.7013 22.6667 23.3333 22.6667ZM23.3333 20C22.9653 20 22.6667 19.7013 22.6667 19.3333C22.6667 18.9653 22.9653 18.6667 23.3333 18.6667C23.7013 18.6667 24 18.9653 24 19.3333C24 19.7013 23.7013 20 23.3333 20ZM26 25.3333C25.632 25.3333 25.3333 25.0347 25.3333 24.6667C25.3333 24.2987 25.632 24 26 24C26.368 24 26.6667 24.2987 26.6667 24.6667C26.6667 25.0347 26.368 25.3333 26 25.3333ZM26 22.6667C25.632 22.6667 25.3333 22.368 25.3333 22C25.3333 21.632 25.632 21.3333 26 21.3333C26.368 21.3333 26.6667 21.632 26.6667 22C26.6667 22.368 26.368 22.6667 26 22.6667ZM26 20C25.632 20 25.3333 19.7013 25.3333 19.3333C25.3333 18.9653 25.632 18.6667 26 18.6667C26.368 18.6667 26.6667 18.9653 26.6667 19.3333C26.6667 19.7013 26.368 20 26 20ZM22.6667 16.6667C22.2987 16.6667 22 16.368 22 16V14.6667H24.6667C25.7693 14.6667 26.6667 15.564 26.6667 16.6667H22.6667Z" fill="#263676"/>
</g>
<defs>
<clipPath id="clip0_190_560">
<rect width="16" height="16" fill="white" transform="translate(12 12)"/>
</clipPath>
</defs>
</svg>
