<svg width="402" height="550" viewBox="0 0 402 550" fill="none" xmlns="http://www.w3.org/2000/svg">
<g opacity="0.1">
<path opacity="0.3" d="M381.932 296.769L68.6577 98.9232V185.197L313.79 340.231L260.693 373.962L381.637 450.506L381.932 296.769Z" fill="white"/>
<path opacity="0.3" d="M226.475 395.692L-174.705 142.384L-175 295.796L226.18 549.429L226.475 395.692Z" fill="white"/>
<path opacity="0.3" d="M224.409 0L224.114 86.2739L469.246 241.307L416.444 275.039L537.388 351.258V197.846L381.046 98.9231L224.409 0Z" fill="white"/>
<path d="M68.6572 185.197V98.9232L0.515625 142.384L68.6572 185.197Z" fill="#F2F2F9"/>
<path d="M156.268 43.4613L224.115 86.2739L224.41 0L156.268 43.4613Z" fill="#F2F2F9"/>
<path d="M226.179 549.428L313.495 493.642L313.79 340.231L226.474 395.692L226.179 549.428Z" fill="#F2F2F9"/>
<path d="M381.637 450.506L469.247 394.72V241.308L381.932 296.769L381.637 450.506Z" fill="#F2F2F9"/>
</g>
</svg>
