<svg width="1445" height="1209" viewBox="0 0 1445 1209" fill="none" xmlns="http://www.w3.org/2000/svg">
<g opacity="0.1">
<path opacity="0.3" d="M837.33 576.998L54.1445 82.3822V298.067L666.976 685.651L534.233 769.979L836.593 961.338L837.33 576.998Z" fill="white"/>
<path opacity="0.3" d="M448.687 824.305L-554.263 191.035L-555 574.565L447.95 1208.65L448.687 824.305Z" fill="white"/>
<path opacity="0.3" d="M443.522 -164.926L442.785 50.7589L1055.62 438.343L923.611 522.671L1225.97 713.219V329.69L835.115 82.3818L443.522 -164.926Z" fill="white"/>
<path d="M54.1431 298.067V82.3822L-116.211 191.035L54.1431 298.067Z" fill="#F2F2F9"/>
<path d="M273.17 -56.2726L442.786 50.7589L443.524 -164.926L273.17 -56.2726Z" fill="#F2F2F9"/>
<path d="M447.949 1208.65L666.238 1069.18L666.975 685.651L448.686 824.305L447.949 1208.65Z" fill="#F2F2F9"/>
<path d="M1225.97 329.69V713.219L1444.26 574.565L1445 191.035L1225.97 329.69Z" fill="#F2F2F9"/>
<path d="M836.592 961.338L1055.62 821.873V438.343L837.329 576.998L836.592 961.338Z" fill="#F2F2F9"/>
</g>
</svg>
