<svg width="220" height="220" viewBox="0 0 220 220" fill="none" xmlns="http://www.w3.org/2000/svg">
<style>
  .machine-part {
    transform-box: fill-box;
  }

  .crusher-head {
    transform-origin: center;
    animation: crusher-head 1.8s ease-in-out infinite;
  }

  .feed-hopper {
    transform-origin: center;
    animation: feed-hopper 1.8s ease-in-out infinite;
  }

  @keyframes crusher-head {
    0% {
      transform: rotate(0deg) translateY(0);
    }
    25% {
      transform: rotate(-1deg) translateY(-0.5px);
    }
    50% {
      transform: rotate(0.5deg) translateY(0.5px);
    }
    75% {
      transform: rotate(-0.6deg) translateY(-0.5px);
    }
    100% {
      transform: rotate(0deg) translateY(0);
    }
  }

  @keyframes feed-hopper {
    0% {
      transform: translateY(0);
    }
    30% {
      transform: translateY(-1px);
    }
    60% {
      transform: translateY(1px);
    }
    100% {
      transform: translateY(0);
    }
  }
</style>
<path d="M65.7767 81.0391C65.3922 81.0971 65.0469 81.0907 64.6595 81.0967C63.3758 80.3772 63.3608 78.7135 63.0733 77.2817C61.7089 70.2974 62.4436 63.0655 65.1848 56.4984C69.1882 47.154 76.5202 38.1144 87.4016 37.1844C91.13 36.8658 94.1518 38.0629 97.5059 39.5101L98.7273 40.5366C108.708 42.4341 112.716 49.8498 113.998 59.1816C116.147 60.1879 124.828 62.0661 127.192 62.1711L128.872 62.4631C134.722 52.9546 146.006 44.0216 157.646 48.3977C158.489 48.7148 159.07 48.7013 159.895 49.2085C160.771 49.6341 160.983 49.7691 161.751 50.3678C164.029 50.4699 168.23 52.2705 169.932 53.6678C181.892 63.4847 179.477 83.2858 172.023 95.1269C171.342 96.2088 170.683 97.844 169.787 98.7081C170.183 99.5894 170.214 99.9606 170.362 100.926C170.553 105.291 170.92 128.039 169.999 130.797C169.08 133.548 165.105 139.891 163.524 142.651C162.695 144.098 160.075 149.362 159.29 150.255C157.624 152.149 155.669 150.881 155.744 154.246L156.107 154.359C156.711 154.262 157.097 153.77 157.568 153.322C157.93 153.65 158.34 153.966 158.572 154.384L158.327 154.61L158.34 154.764C158.39 155.421 158.377 155.647 158.311 156.306C160.443 155.514 164.171 153.373 165.84 153.51C166.911 154.141 166.875 155.027 166.352 156.083C164.298 157.725 159.833 159.51 157.237 160.705L141.197 168.044L121.804 176.951C117.743 178.844 113.61 180.888 109.454 182.529C104.676 184.415 99.281 181.353 94.5828 180.17C94.5516 178.541 94.4609 176.263 94.5941 174.682C94.5688 174.039 94.618 173.34 94.2583 172.823C93.4144 173.102 92.623 176.368 92.5035 177.267C92.2884 177.793 92.3379 179.168 92.3293 179.807C89.5496 177.856 85.2867 176.965 82.0499 175.868C77.9388 174.474 46.3796 164.344 45.1457 163.097C44.7463 162.694 44.6288 162.003 44.7143 161.463C44.8995 160.292 45.8684 160.089 46.2573 159.164C46.8612 157.729 46.481 153.447 46.4754 151.712L46.499 111.281C46.5087 105.743 46.5132 100.196 46.3533 94.657C46.3615 93.6414 46.8346 92.3303 47.6628 91.695C48.6818 90.9134 52.0819 89.4988 53.2511 89.5961C54.1997 89.3783 54.8487 89.1688 55.7723 88.8541C56.7978 87.1895 64.1132 84.2074 66.1955 83.223L66.2142 82.8318C65.8792 82.5097 65.9028 82.517 65.76 82.0648C65.8347 81.6611 65.8356 81.4448 65.7767 81.0391ZM129.607 94.1175C130.045 96.1061 130.404 96.6432 131.521 98.2692C130.846 96.0954 130.376 94.3474 130.013 92.107C129.954 93.0972 130.094 93.3654 129.607 94.1175ZM109.556 58.2706C109.663 56.8905 108.678 54.1003 108.141 52.761L107.646 52.3444C107.901 53.3969 108.611 57.3002 108.984 57.9522L109.556 58.2706Z" fill="white"/>
<path d="M128.872 62.463C134.722 52.9545 146.006 44.0215 157.646 48.3976C158.489 48.7148 159.07 48.7012 159.895 49.2085C160.771 49.6341 160.983 49.769 161.751 50.3678C164.028 50.4698 168.23 52.2704 169.932 53.6678C181.892 63.4846 179.477 83.2857 172.023 95.1268C171.342 96.2088 170.683 97.8439 169.786 98.708C170.182 99.5893 170.214 99.9606 170.362 100.926C170.553 105.291 170.92 128.039 169.999 130.797C169.079 133.548 165.104 139.891 163.524 142.651C162.695 144.098 160.075 149.362 159.29 150.255C157.624 152.149 155.669 150.881 155.744 154.246L156.107 154.359C156.711 154.262 157.097 153.769 157.568 153.322C157.93 153.65 158.34 153.966 158.572 154.383L158.326 154.61L158.339 154.764C158.39 155.421 158.377 155.647 158.311 156.306C158.274 156.346 158.242 156.39 158.2 156.425C157.149 157.297 109.544 179.071 107.671 179.415C103.681 180.148 100.727 178.03 97.023 177.297C103.446 174.279 110.126 171.622 116.638 168.787C117.033 168.615 118.872 168.665 119.395 168.674C120.222 167.556 118.962 109.369 119.866 101.875L122.251 100.672C122.36 115.777 122.389 130.882 122.339 145.988C122.341 153.192 122.572 161.776 122.269 168.885C123.003 168.433 123.909 167.765 124.636 167.261L125.16 165.472C126.071 164.974 126.96 164.596 127.922 164.212C134.612 161.547 141.073 158.293 147.811 155.758C148.575 155.47 149.396 155.597 150.195 155.583C150.521 154.59 150.392 144.879 150.404 143.281C150.478 133.324 150.269 123.272 150.439 113.318L151.838 111.259C146.706 111.548 146.513 110.629 141.98 109.687C132.675 107.754 127.497 104.825 123.487 95.4065C119.658 97.4531 114.841 99.2301 110.858 101.071C109.439 101.727 107.697 102.391 106.302 103.053C105.524 103.422 105.905 104.717 104.212 105.459C102.341 106.28 100.428 106.591 98.7009 107.63C97.4838 107.331 96.1346 106.85 94.9317 106.454C94.879 112.579 94.8707 118.704 94.907 124.828C92.3056 126.932 91.405 128.121 89.8985 131.126C86.9019 130.11 83.9091 129.415 80.8654 128.571L63.6743 123.735C59.1342 122.469 54.7967 121.384 50.3662 119.782C52.711 116.507 55.6539 112.948 58.2937 109.91C60.2819 110.598 64.0365 111.445 66.2038 112.025L79.8262 115.752C82.0112 116.332 88.0268 118.194 89.824 118.37L89.7918 123.795C90.5336 124.015 91.4907 124.432 92.2281 124.728C92.0861 122.236 91.9982 104.09 92.5559 102.825C93.0574 101.688 107.681 95.7483 109.777 94.9343C106.442 93.9009 83.1153 88.4222 82.1934 87.673C82.2149 86.5951 83.4442 85.7976 84.2318 85.1469C87.2579 86.8446 92.3188 87.0723 94.8896 88.9129C99.6146 88.8639 103.661 90.3843 108.291 91.4626C108.72 91.5623 110.355 92.7461 110.965 92.9588C113.141 93.7174 118.041 91.2749 120.161 90.3863C118.693 90.4855 116.78 90.4501 115.278 90.4628C115.425 88.5034 116.723 82.567 116.467 81.6338C115.897 81.2511 115.779 81.1377 115.081 81.1929C113.18 82.0903 111.488 87.0311 110.591 89.1075C107.159 88.1375 102.732 87.1978 99.2103 86.41C99.5921 83.9702 100.718 80.0841 100.83 78.0177C100.369 77.1281 99.3925 76.9515 98.4949 77.2247C97.7988 78.0252 95.1036 83.904 94.4771 85.2062C92.5512 84.6194 89.7744 83.8032 87.7997 83.6597C88.374 79.8127 90.2371 75.5496 91.0961 71.6212C92.3065 66.0851 96.8691 57.7008 103.673 59.382C111.031 61.1998 118.478 62.703 125.81 64.5434C126.246 63.6268 126.648 63.015 127.192 62.1711L128.872 62.463ZM129.607 94.1175C130.045 96.1061 130.404 96.6432 131.521 98.2691C130.846 96.0953 130.376 94.3474 130.013 92.107C129.954 93.0972 130.094 93.3653 129.607 94.1175Z" fill="#263676"/>
<g class="machine-part crusher-head">
<path d="M161.752 50.3682C164.029 50.4702 168.23 52.2708 169.933 53.6682C181.892 63.485 179.477 83.2861 172.023 95.1272C171.342 96.2092 170.684 97.8443 169.787 98.7084C169.236 99.1177 166.785 101.63 166.107 102.26C162.032 106.052 157.575 108.688 151.989 109.401C148.094 109.926 144.15 108.878 141.03 106.489C136.418 102.883 134.21 96.5778 133.476 90.9315C132.176 80.9415 135.881 69.6182 141.953 61.6844C145.576 56.9499 150.589 52.8771 156.414 51.2069C157.733 50.8288 160.303 50.5508 161.752 50.3682Z" fill="white"/>
<path d="M156.875 69.4134C164.394 69.2757 163.688 80.1936 160.715 84.6099C158.21 88.33 157.083 89.2927 152.775 90.4842C147.581 88.8954 146.909 85.2521 147.194 80.3416C148.268 80.7395 148.968 80.5651 149.827 81.0268C150.334 81.4638 150.398 82.6018 150.508 83.3144C151.257 85.1971 152.333 86.3818 154.744 85.8758C158.638 85.0588 161.775 76.8339 157.924 74.4556C153.314 71.6082 152.013 78.1659 150.318 78.7458C149.838 78.4757 149.619 78.3015 149.186 77.9575L148.031 78.1614L147.871 77.9191C148.487 75.8845 149.952 73.7004 151.399 72.1546C152.96 70.4876 154.77 70.0072 156.875 69.4134Z" fill="#263676"/>
<path d="M165.005 56.3303C177.253 63.0289 175.822 80.0192 170.146 90.7317C165.951 98.6487 154.355 108.769 144.898 103.408C144.375 103.116 143.873 102.786 143.397 102.421L144.493 102.201C146.461 103.287 149.332 103.801 151.496 103.402C167.267 100.494 175.655 80.3894 171.455 65.9764C170.039 61.1155 168.482 59.6909 165.005 56.3303Z" fill="#263676"/>
<path d="M160.064 57.3552C165.211 56.8994 163.905 62.9461 159.85 65.1268C158.073 65.0898 156.634 63.7172 156.967 61.8801C157.356 59.7361 158.372 58.6026 160.064 57.3552Z" fill="#263676"/>
<path d="M148.456 94.7637C153.737 94.2818 152.336 100.246 148.602 102.197C146.323 102.459 145.936 100.684 145.592 99.0077C146.201 96.9138 146.785 96.1123 148.456 94.7637Z" fill="#263676"/>
<path d="M142.216 72.6038C146.711 73.6806 144.16 79.1021 141.491 80.2739C136.886 80.4286 138.184 74.4265 142.216 72.6038Z" fill="#263676"/>
<path d="M166.819 82.4661C170.823 83.8187 168.77 88.8321 165.637 90.0765C161.119 89.3505 163.984 83.9193 166.819 82.4661Z" fill="#263676"/>
<path d="M139.874 98.5479C141.453 99.9003 142.691 101.146 144.493 102.2L143.397 102.421C141.999 101.272 140.953 99.9828 139.874 98.5479Z" fill="#263676"/>
<path d="M153.007 111.222C157.679 110.266 162.029 108.133 165.647 105.026C167.02 103.839 168.797 102.066 170.202 101.042L170.362 100.927C170.553 105.291 170.92 128.039 169.999 130.797C169.08 133.548 165.105 139.891 163.524 142.651C162.695 144.099 160.075 149.363 159.29 150.255C157.624 152.149 155.669 150.881 155.744 154.246C154.833 154.902 153.919 155.551 153 156.195L153.007 111.222Z" fill="white"/>
<path d="M160.975 132.507C164.865 132.858 163.974 136.595 161.424 138.148C160.665 138.193 159.806 138.152 159.173 137.706C159.198 135.872 161.302 136.604 160.975 132.507Z" fill="#263676"/>
<path d="M128.872 62.463C134.722 52.9545 146.006 44.0215 157.646 48.3976C158.489 48.7148 159.07 48.7012 159.895 49.2085C152.775 50.2889 147.223 53.191 142.447 58.6117C130.862 71.7585 126.33 94.3819 140.326 107.464C137.104 106.501 134.225 105.638 131.521 103.475C120.703 94.8202 121.675 77.888 127.008 66.4694C127.635 65.1273 128.274 63.8077 128.872 62.463ZM129.607 94.1175C130.045 96.1061 130.404 96.6432 131.521 98.2691C130.846 96.0953 130.376 94.3474 130.013 92.107C129.954 93.0972 130.094 93.3653 129.607 94.1175Z" fill="white"/>
<path d="M133.573 61.5867C128.817 69.1121 126.007 77.8369 126.303 86.751C126.378 89.0126 126.775 91.2029 126.84 93.4483C126.369 92.5339 126.087 91.085 125.896 90.0591C123.849 79.0428 126.672 69.4678 132.817 60.3679C133.017 61.307 132.817 60.9811 133.573 61.5867Z" fill="#263676"/>
<path d="M130.458 72.4181C133.922 63.0621 140.752 52.7184 150.798 49.606C143.178 54.5826 139.225 58.1503 134.803 66.4467C133.916 68.1117 132.941 70.7073 132.225 72.0374L131.928 72.0769C131.707 72.4254 131.614 72.6647 131.45 73.0443C130.787 72.8759 131.03 72.978 130.458 72.4181Z" fill="#263676"/>
<path d="M130.459 72.4183C131.031 72.9782 130.787 72.8761 131.451 73.0446C131.614 72.6649 131.708 72.4256 131.929 72.0771L132.225 72.0376C130.223 79.3124 128.765 84.4801 130.013 92.1072C129.955 93.0974 130.094 93.3656 129.608 94.1177C127.737 88.3623 128.272 78.0638 130.459 72.4183Z" fill="#263676"/>
<path d="M146.004 49.606C144.35 51.0188 142.512 52.1647 140.81 53.5258C137.799 55.9327 135.793 58.5149 133.573 61.5867C132.817 60.9811 133.017 61.307 132.817 60.3679C136.657 55.4987 140.166 52.1003 146.004 49.606Z" fill="#263676"/>
<path d="M130.013 92.1072C130.376 94.3476 130.846 96.0955 131.521 98.2693C130.404 96.6434 130.045 96.1063 129.607 94.1177C130.094 93.3655 129.954 93.0974 130.013 92.1072Z" fill="#263676"/>
</g>
<path d="M121.516 92.3833L121.982 92.5337C122.252 93.5477 121.459 94.1955 120.58 94.5203C115.057 96.562 109.505 99.5812 104.04 101.594C103.615 101.336 103.756 101.466 103.527 100.974L103.713 100.485C105.206 99.0493 118.61 93.6245 121.516 92.3833Z" fill="white"/>
<path d="M109.786 174.289C110.735 174.332 111.177 174.235 111.651 175.113L111.451 175.643C110.951 176.16 110.477 176.154 109.759 176.261C108.73 176.253 108.067 176.462 107.548 175.528L107.76 175.061C108.425 174.46 108.89 174.45 109.786 174.289Z" fill="white"/>
<path d="M99.0987 101.878C100.169 101.812 100.798 101.633 101.577 102.478L101.556 102.912C101.149 103.477 100.701 103.537 100.039 103.728C99.1503 103.883 98.2675 104.183 97.8799 103.213C98.0894 102.513 98.5004 102.31 99.0987 101.878Z" fill="white"/>
<g class="machine-part feed-hopper">
<path d="M65.7766 81.0391C65.392 81.0971 65.0467 81.0907 64.6594 81.0967C63.3757 80.3772 63.3606 78.7135 63.0732 77.2817C61.7087 70.2974 62.4435 63.0655 65.1847 56.4984C69.1881 47.154 76.52 38.1144 87.4014 37.1844C91.1298 36.8658 94.1516 38.0629 97.5057 39.5101C95.9165 39.764 94.2255 39.944 92.6851 40.3767C77.6546 44.5982 69.0714 63.018 71.4239 77.6334C71.4431 77.7557 71.4641 77.8777 71.4865 77.9993C70.418 78.5338 66.1921 80.3439 65.7766 81.0391Z" fill="white"/>
<path d="M82.2326 42.5723L82.8223 43.3702C82.3619 43.735 81.9131 44.1144 81.4763 44.5074C74.6349 50.8324 70.2733 59.39 69.1759 68.6425C68.8049 72.0007 69.0014 74.9922 68.83 78.3233C64.4014 66.1406 72.1811 49.8065 82.2326 42.5723Z" fill="#263676"/>
<path d="M78.5837 42.0996L79.2484 42.6105C78.7736 42.965 78.3192 43.3459 77.8874 43.7518C70.4802 50.7501 66.0474 60.3285 65.5064 70.5043C65.3601 73.322 65.8834 74.7269 65.84 76.6379L65.608 76.6078C65.2185 75.8451 65.058 74.9952 64.9166 74.1558C62.9343 62.377 68.8427 48.8313 78.5837 42.0996Z" fill="#263676"/>
<path d="M82.2329 42.5723C85.1071 40.6647 85.9978 40.1276 89.3662 39.4109C86.6366 40.6984 85.2188 41.534 82.8227 43.3702L82.2329 42.5723Z" fill="#263676"/>
<path d="M78.5835 42.0994C80.6958 40.6859 81.6317 40.1026 84.1512 39.5144C82.4926 40.5074 80.8578 41.5397 79.2482 42.6103L78.5835 42.0994Z" fill="#263676"/>
<path d="M97.5057 39.5103L98.7271 40.5368C90.415 41.4039 85.8246 44.0579 80.3448 50.5743C75.4277 56.4217 71.7045 67.1508 72.538 74.8069C72.6384 75.6764 72.7538 76.5439 72.8842 77.4091C74.0304 77.0671 75.053 76.7665 76.2235 76.4952C77.5774 76.9463 79.0824 77.4128 80.4091 77.9022C81.9319 77.1348 85.7335 75.806 87.3921 75.3548C87.008 76.6793 86.8314 77.3535 86.6284 78.724C77.227 83.1921 67.3193 87.186 57.7201 91.2371C57.2493 91.4358 58.0447 93.2012 57.1288 93.4322C55.2341 94.4363 53.1297 94.9204 51.2043 95.8464C49.762 95.1073 49.2705 94.8366 48.1387 93.6008C51.0098 90.9469 52.6532 92.5109 53.8507 90.7797C53.7205 90.0065 53.7781 90.2473 53.2509 89.5963C54.1994 89.3785 54.8485 89.169 55.7721 88.8543C56.7975 87.1897 64.113 84.2076 66.1952 83.2232L66.2139 82.832C65.879 82.5099 65.9026 82.5173 65.7597 82.065C65.8345 81.6613 65.8354 81.445 65.7765 81.0393C66.192 80.3441 70.418 78.534 71.4864 77.9995C71.464 77.8779 71.443 77.7559 71.4239 77.6336C69.0713 63.0182 77.6546 44.5984 92.685 40.3769C94.2255 39.9442 95.9165 39.7642 97.5057 39.5103Z" fill="#263676"/>
<path d="M66.1951 83.2232C68.2159 82.9169 72.9977 80.015 74.5081 80.3467L74.8967 80.6288C74.6918 81.2682 74.301 81.4675 73.7063 81.7756C71.583 82.8754 57.6895 89.5186 56.3056 89.1039C56.1151 89.047 55.9421 88.955 55.772 88.8543C56.7974 87.1897 64.1129 84.2076 66.1951 83.2232Z" fill="white"/>
<path d="M75.7658 79.3012C76.6516 79.2245 78.4943 78.8651 78.7592 79.8652L78.3626 80.5063C77.3284 80.8143 76.6725 81.1366 75.7366 80.6988C75.5046 79.9326 75.5731 80.1511 75.7658 79.3012Z" fill="white"/>
<path d="M96.4439 57.6273C97.0055 57.5714 97.0787 57.5338 97.5892 57.7274C97.5578 57.8337 97.5262 57.9401 97.4947 58.0467C92.422 60.804 90.1498 65.7359 88.6732 71.049C88.482 71.7369 88.0701 73.3251 87.7779 73.7399C82.2859 68.7283 90.0205 58.7522 96.4439 57.6273Z" fill="#263676"/>
<path d="M97.7382 46.7935C99.3137 46.836 99.9917 48.1835 100.642 49.4081C100.511 49.8737 100.369 50.3362 100.217 50.7951C99.5966 52.6585 99.0275 53.2994 97.3137 54.1534C93.4396 54.8838 93.6033 49.2586 97.7382 46.7935Z" fill="#263676"/>
<path d="M79.8949 61.233C83.1484 61.1906 83.0286 62.8737 82.9095 65.4478C82.1838 66.7467 81.4946 67.4488 80.3776 68.3885C80.134 68.3928 79.8899 68.3913 79.6463 68.3845C75.485 68.247 77.6175 63.1427 79.8949 61.233Z" fill="#263676"/>
<path d="M79.9721 88.6697C80.5902 88.6841 81.0014 88.6385 81.5379 88.9623C82.2555 90.2058 81.7962 99.4031 81.5871 101.321C80.8925 101.072 80.1898 100.914 79.748 100.345C79.3618 98.6505 79.5508 90.4 79.9721 88.6697Z" fill="#263676"/>
<path d="M61.5726 91.8203L62.1535 92.0038C62.8455 92.7643 62.629 95.9475 62.2429 96.8949C61.865 96.6382 61.8377 96.5838 61.55 96.2207C61.2351 94.9194 61.0101 93.0731 61.5726 91.8203Z" fill="#263676"/>
<path d="M52.5466 108.316C53.3151 108.425 54.3756 108.52 55.0465 108.845L55.0446 109.133L54.252 109.646C53.4835 110.236 53.2938 110.497 52.4471 110.389L52.1885 110.005C52.1805 109.214 52.271 109.046 52.5466 108.316Z" fill="#263676"/>
</g>
<path d="M92.5034 177.268C92.1115 173.441 92.2611 169.656 92.2733 165.816L92.2901 149.448C92.283 143.846 92.0784 136.894 92.46 131.307C92.5268 130.328 95.5318 123.929 96.8583 123.461C97.7181 123.157 97.4369 123.063 98.3227 123.273C99.9795 125.042 96.1388 129.753 94.9967 131.281C94.1631 145.028 95.6225 160.782 94.594 174.683C94.5687 174.039 94.6179 173.34 94.2582 172.824C93.4143 173.102 92.6229 176.368 92.5034 177.268Z" fill="#263676"/>
<path d="M58.2453 125.199C58.7922 125.314 59.3906 125.507 59.929 125.672C69.8298 128.7 79.9217 131.131 89.838 134.085C89.7551 138.22 89.8165 142.571 89.8103 146.724C87.823 146.233 85.8477 145.695 83.8864 145.108C75.3387 142.961 66.8343 139.977 58.3305 137.628C55.7327 136.911 52.9736 136.082 50.4277 135.208C52.1976 132.401 56.0356 127.77 58.2453 125.199Z" fill="#263676"/>
<path d="M58.0579 140.673C59.9947 141.085 63.6211 142.267 65.6239 142.849C70.7827 144.331 75.9323 145.845 81.0729 147.389C83.2926 148.058 87.6475 149.499 89.8022 149.85L89.7854 162.747L83.9801 160.932C76.7644 158.716 69.5736 156.422 62.4083 154.048C58.464 152.783 54.5068 151.65 50.6123 150.232C52.6931 146.839 55.4805 143.729 58.0579 140.673Z" fill="#263676"/>
<path d="M57.7687 97.9488C59.1156 97.9061 66.8438 100.222 68.6854 100.719C75.6489 102.601 82.8868 104.287 89.8086 106.216C89.8434 109.273 89.8013 112.395 89.7914 115.457L84.6122 114.035C77.4521 112.042 70.2797 110.092 63.0958 108.185C59.1826 107.116 53.867 105.744 50.1504 104.251C52.7743 101.342 55.0303 100.363 57.7687 97.9488Z" fill="#263676"/>
<path d="M57.6566 101.844C58.7749 101.779 60.0641 101.68 60.5538 102.873C60.3623 103.552 60.2369 103.627 59.7036 104.062C58.6277 104.045 57.095 103.993 56.6924 102.837C56.8855 102.274 57.1502 102.18 57.6566 101.844Z" fill="white"/>
<path d="M60.7638 156.86C62.2705 156.696 85.6283 164.931 89.7823 165.803C89.8504 168.766 89.7993 171.922 89.8021 174.901C86.8214 173.686 82.0542 172.325 78.7971 171.208C75.3173 170.133 46.9891 160.676 46.7104 160.152C47.2705 160.053 49.6555 160.96 50.5394 161.215C52.6133 160.59 58.4276 157.871 60.7638 156.86Z" fill="#263676"/>
<path d="M59.2761 160.76C60.3913 160.725 62.193 160.657 62.7314 161.857C62.3494 162.448 62.5196 162.246 61.7573 162.613C60.6412 162.671 58.8704 162.793 58.3286 161.617C58.6144 161.079 58.728 161.044 59.2761 160.76Z" fill="white"/>
<path d="M146.927 142.593C147.248 142.664 147.213 142.687 147.499 142.89C147.747 143.914 147.613 145.515 147.573 146.612C147.105 147.034 145.558 148.319 145.097 148.609C142.881 150 131.501 159.593 130.213 159.582C129.314 158.603 128.328 156.951 129.578 155.799C131.482 154.045 133.71 152.488 135.786 150.923C139.478 148.118 143.192 145.341 146.927 142.593Z" fill="#263676"/>
<path d="M111.769 155.499C115.433 156.745 114.627 158.833 112.311 160.979C111.462 160.569 110.293 159.807 109.46 159.299C110.218 158.025 110.987 156.758 111.769 155.499Z" fill="#263676"/>
<path d="M112.708 115.491C116.566 116.132 115.277 118.892 113.433 120.881C112.524 120.818 111.378 119.626 110.69 118.999C111.367 117.61 111.756 116.715 112.708 115.491Z" fill="#263676"/>
<path d="M112.662 136.961C116.284 137.347 115.549 140.07 113.512 142.047C112.067 141.842 111.603 141 110.8 139.86C111.442 138.679 111.778 137.996 112.662 136.961Z" fill="#263676"/>
<path d="M112.711 126.404C113.252 126.484 114.253 126.994 114.643 127.372C116.177 128.857 114.366 130.575 113.424 131.575C112.368 131.536 111.486 130.306 110.813 129.549C111.489 128.278 111.874 127.582 112.711 126.404Z" fill="#263676"/>
<path d="M100.7 108.76C102.379 108.645 104.298 108.87 103.755 111.253C103.384 112.883 102.13 113.617 100.768 114.387C100.024 114.038 99.4355 113.729 98.9443 113.071C99.4554 111.887 101.676 112.557 101.492 110.263C101.107 109.732 100.859 109.418 100.7 108.76Z" fill="#263676"/>
<path d="M107.646 52.3445L108.141 52.7611C108.678 54.1004 109.662 56.8906 109.556 58.2707L108.984 57.9523C108.611 57.3003 107.901 53.397 107.646 52.3445Z" fill="#263676"/>
<path d="M157.568 153.323C158.581 152.5 159.728 151.93 160.973 152.617C161.406 153.299 161.361 153.013 161.225 153.691C160.647 154.35 159.402 154.451 158.572 154.384C158.34 153.966 157.93 153.65 157.568 153.323Z" fill="white"/>
</svg>
