<svg width="1713" height="1103" viewBox="0 0 1713 1103" fill="none" xmlns="http://www.w3.org/2000/svg">
<g opacity="0.06">
<path opacity="0.3" d="M1105.33 642.278L322.145 147.662V363.347L934.976 750.931L802.233 835.259L1104.59 1026.62L1105.33 642.278Z" fill="#2A5387"/>
<path opacity="0.3" d="M716.687 889.585L-286.263 256.315L-287 639.845L715.95 1273.93L716.687 889.585Z" fill="#2A5387"/>
<path opacity="0.3" d="M711.523 -99.6458L710.785 116.039L1323.62 503.623L1191.61 587.951L1493.97 778.499V394.97L1103.12 147.662L711.523 -99.6458Z" fill="#2A5387"/>
<path d="M322.143 363.347V147.662L151.789 256.315L322.143 363.347Z" fill="#263676"/>
<path d="M541.17 9.00745L710.786 116.039L711.524 -99.6458L541.17 9.00745Z" fill="#263676"/>
<path d="M715.949 1273.93L934.238 1134.46L934.976 750.93L716.687 889.585L715.949 1273.93Z" fill="#263676"/>
<path d="M1493.97 394.97V778.499L1712.26 639.845L1713 256.315L1493.97 394.97Z" fill="#263676"/>
<path d="M1104.59 1026.62L1323.62 887.153V503.623L1105.33 642.278L1104.59 1026.62Z" fill="#263676"/>
</g>
</svg>
