<svg width="90" height="90" viewBox="0 0 90 90" fill="none" xmlns="http://www.w3.org/2000/svg">
<circle cx="45" cy="45" r="45" fill="#FBD007"/>
<g clip-path="url(#clip0_341_640)">
<path d="M54.9904 34.263C54.9899 34.263 54.9894 34.2629 54.9889 34.2629L46.3501 34.2838C45.703 34.2854 45.1795 34.8113 45.1811 35.4585C45.1826 36.1058 45.7085 36.6292 46.3557 36.6276L52.1557 36.6135L34.6068 54.1624C34.1492 54.6201 34.1492 55.362 34.6068 55.8197C35.0645 56.2774 35.8064 56.2774 36.2641 55.8197L53.8129 38.2709L53.7989 44.0708C53.7974 44.718 54.3208 45.2439 54.968 45.2454C55.6153 45.247 56.1412 44.7234 56.1427 44.0763L56.1636 35.4376C56.1636 35.4371 56.1635 35.4366 56.1636 35.436C56.1642 34.7876 55.6368 34.2623 54.9904 34.263Z" fill="#263676"/>
</g>
<defs>
<clipPath id="clip0_341_640">
<rect width="30" height="30" fill="white" transform="translate(24 45.2129) rotate(-45)"/>
</clipPath>
</defs>
</svg>
