<svg width="402" height="488" viewBox="0 0 402 488" fill="none" xmlns="http://www.w3.org/2000/svg">
<rect width="402" height="488" fill="#FAFAFF"/>
<mask id="mask0_190_1025" style="mask-type:alpha" maskUnits="userSpaceOnUse" x="0" y="0" width="402" height="488">
<path d="M0 0H402V488H0V0Z" fill="#FAFAFF"/>
</mask>
<g mask="url(#mask0_190_1025)">
<g opacity="0.1">
<path opacity="0.3" d="M277.932 280.769L-35.3423 82.9231V169.197L209.79 324.23L156.693 357.962L277.637 434.505L277.932 280.769Z" fill="#2A5387"/>
<path opacity="0.3" d="M122.475 379.692L-278.705 126.384L-279 279.796L122.18 533.428L122.475 379.692Z" fill="#2A5387"/>
<path opacity="0.3" d="M120.409 -16L120.114 70.2739L365.246 225.307L312.444 259.039L433.388 335.258V181.846L277.046 82.9231L120.409 -16Z" fill="#2A5387"/>
<path d="M52.2681 27.4613L120.115 70.2739L120.41 -16L52.2681 27.4613Z" fill="#263676"/>
<path d="M122.179 533.428L209.495 477.642L209.79 324.23L122.474 379.692L122.179 533.428Z" fill="#263676"/>
<path d="M277.637 434.506L365.247 378.719V225.308L277.932 280.769L277.637 434.506Z" fill="#263676"/>
</g>
</g>
</svg>
