<svg width="402" height="470" viewBox="0 0 402 470" fill="none" xmlns="http://www.w3.org/2000/svg">
<g opacity="0.1">
<path opacity="0.3" d="M269.932 217.123L-43.3423 19.2773V105.551L201.79 260.585L148.693 294.316L269.637 370.86L269.932 217.123Z" fill="white"/>
<path opacity="0.3" d="M114.475 316.047L-286.705 62.7386L-287 216.15L114.18 469.783L114.475 316.047Z" fill="white"/>
<path opacity="0.3" d="M112.409 -79.6458L112.114 6.62814L357.246 161.662L304.444 195.393L425.388 271.612V118.2L269.046 19.2773L112.409 -79.6458Z" fill="white"/>
<path d="M44.2681 -36.1845L112.115 6.62814L112.41 -79.6458L44.2681 -36.1845Z" fill="#F2F2F9"/>
<path d="M114.179 469.783L201.495 413.997L201.79 260.585L114.474 316.047L114.179 469.783Z" fill="#F2F2F9"/>
<path d="M269.637 370.86L357.247 315.074V161.662L269.932 217.124L269.637 370.86Z" fill="#F2F2F9"/>
</g>
</svg>
