<svg width="1713" height="770" viewBox="0 0 1713 770" fill="none" xmlns="http://www.w3.org/2000/svg">
<g opacity="0.1">
<path opacity="0.3" d="M1105.33 642.277L322.145 147.662V363.347L934.976 750.931L802.233 835.259L1104.59 1026.62L1105.33 642.277Z" fill="white"/>
<path opacity="0.3" d="M716.687 889.585L-286.263 256.315L-287 639.845L715.95 1273.93L716.687 889.585Z" fill="white"/>
<path opacity="0.3" d="M711.522 -99.6458L710.785 116.039L1323.62 503.623L1191.61 587.951L1493.97 778.499V394.97L1103.11 147.662L711.522 -99.6458Z" fill="white"/>
<path d="M322.143 363.347V147.662L151.789 256.315L322.143 363.347Z" fill="#F2F2F9"/>
<path d="M541.17 9.00745L710.786 116.039L711.524 -99.6458L541.17 9.00745Z" fill="#F2F2F9"/>
<path d="M715.949 1273.93L934.238 1134.46L934.975 750.93L716.686 889.585L715.949 1273.93Z" fill="#F2F2F9"/>
<path d="M1493.97 394.97V778.499L1712.26 639.845L1713 256.315L1493.97 394.97Z" fill="#F2F2F9"/>
<path d="M1104.59 1026.62L1323.62 887.153V503.623L1105.33 642.278L1104.59 1026.62Z" fill="#F2F2F9"/>
</g>
</svg>
