<svg width="38" height="38" viewBox="0 0 38 38" fill="none" xmlns="http://www.w3.org/2000/svg">
<g clip-path="url(#clip0_677_152)">
<path d="M19 38C29.4934 38 38 29.4934 38 19C38 8.50659 29.4934 0 19 0C8.50659 0 0 8.50659 0 19C0 29.4934 8.50659 38 19 38Z" fill="#FBD007"/>
<path fill-rule="evenodd" clip-rule="evenodd" d="M20.6546 14.1847L25.2429 18.1847C25.4062 18.3271 25.5 18.5333 25.5 18.75C25.5 18.9668 25.4062 19.1729 25.2429 19.3153L20.6546 23.3153C20.3424 23.5875 19.8686 23.5551 19.5964 23.2429C19.3242 22.9306 19.3567 22.4569 19.6689 22.1847L22.7484 19.5H13.75C13.3358 19.5 13 19.1642 13 18.75C13 18.3358 13.3358 18 13.75 18H22.7484L19.6689 15.3153C19.3567 15.0431 19.3242 14.5694 19.5964 14.2572C19.8686 13.9449 20.3424 13.9125 20.6546 14.1847Z" fill="#263676"/>
</g>
<defs>
<clipPath id="clip0_677_152">
<rect width="38" height="38" fill="white"/>
</clipPath>
</defs>
</svg>
