<svg width="57" height="57" viewBox="0 0 57 57" fill="none" xmlns="http://www.w3.org/2000/svg">
<circle cx="28.5" cy="28.5" r="28" fill="#FBD007" stroke="white"/>
<g clip-path="url(#clip0_823_888)">
<path d="M35.4167 18.916H22.5833C21.3682 18.9175 20.2033 19.4008 19.344 20.2601C18.4848 21.1193 18.0015 22.2842 18 23.4993V34.4994C18.0015 35.7145 18.4848 36.8794 19.344 37.7386C20.2033 38.5979 21.3682 39.0812 22.5833 39.0827H35.4167C36.6318 39.0812 37.7967 38.5979 38.656 37.7386C39.5152 36.8794 39.9985 35.7145 40 34.4994V23.4993C39.9985 22.2842 39.5152 21.1193 38.656 20.2601C37.7967 19.4008 36.6318 18.9175 35.4167 18.916ZM22.5833 20.7493H35.4167C35.9656 20.7504 36.5016 20.9157 36.9557 21.224C37.4099 21.5323 37.7614 21.9694 37.965 22.4791L30.9452 29.4998C30.4286 30.0144 29.7291 30.3033 29 30.3033C28.2709 30.3033 27.5714 30.0144 27.0548 29.4998L20.035 22.4791C20.2386 21.9694 20.5901 21.5323 21.0443 21.224C21.4984 20.9157 22.0344 20.7504 22.5833 20.7493ZM35.4167 37.2494H22.5833C21.854 37.2493 21.1545 36.9596 20.6388 36.4439C20.1231 35.9282 19.8333 35.2287 19.8333 34.4994V24.8743L25.7587 30.796C26.6191 31.6543 27.7847 32.1362 29 32.1362C30.2153 32.1362 31.3809 31.6543 32.2413 30.796L38.1667 24.8743V34.4994C38.1667 35.2287 37.8769 35.9282 37.3612 36.4439C36.8455 36.9596 36.146 37.2493 35.4167 37.2494Z" fill="#263676"/>
</g>
<defs>
<clipPath id="clip0_823_888">
<rect width="22" height="22" fill="white" transform="translate(18 18)"/>
</clipPath>
</defs>
</svg>
