<svg width="300" height="217" viewBox="0 0 300 217" fill="none" xmlns="http://www.w3.org/2000/svg">
<path d="M103.298 41.294L117.493 33.0597V49.4055L103.298 41.294ZM149.816 30.6631V14.3174L135.621 22.5517L149.816 30.6631ZM215.138 51.802L182.508 33.0597L149.878 14.3174V30.6631L200.943 60.0363L189.882 66.4272L182.692 70.5443L117.432 33.0597V49.4055L168.497 78.7787L157.436 85.1695L150.246 89.2867L66.7354 41.294V70.36L150.246 118.353L168.435 107.845V91.4989L182.63 99.6717L200.82 89.1638V72.818L215.015 80.9909L233.204 70.4829V41.4169L215.015 51.9249L215.138 51.802Z" fill="url(#paint0_linear_823_832)"/>
<g opacity="0.7">
<path d="M64.3993 142.994C59.6062 140.414 54.2601 139.123 48.2994 139.123C42.3387 139.123 36.5624 140.475 31.6464 143.117C26.7304 145.821 22.859 149.508 20.0937 154.24C17.3285 158.971 15.9766 164.379 15.9766 170.401C15.9766 176.423 17.3899 181.831 20.2781 186.501C23.1662 191.233 27.1605 194.92 32.3838 197.624C37.607 200.327 43.6292 201.679 50.573 201.679C57.5169 201.679 60.9581 200.819 65.1367 199.16C69.3768 197.439 72.8795 195.043 75.6447 191.847L66.2428 181.647C64.215 183.613 61.9413 185.088 59.4833 186.071C57.0253 187.054 54.1986 187.546 51.0646 187.546C47.9307 187.546 44.1822 186.87 41.5399 185.579C38.8975 184.289 36.8082 182.384 35.3334 179.865C34.4731 178.513 33.92 176.976 33.5513 175.317H79.5775C79.639 174.58 79.7004 173.781 79.8233 172.859C79.8848 171.999 79.9463 171.2 79.9463 170.524C79.9463 163.949 78.5329 158.357 75.7676 153.687C73.0024 149.017 69.1925 145.391 64.3993 142.81V142.994ZM40.4338 154.486C42.7074 153.195 45.4112 152.519 48.4223 152.519C51.4333 152.519 54.0757 153.195 56.3494 154.486C58.623 155.776 60.4051 157.62 61.6955 159.955C62.5558 161.491 63.1089 163.212 63.3547 165.178H33.4284C33.7357 163.273 34.2887 161.552 35.0876 160.016C36.378 157.62 38.1601 155.776 40.4338 154.486Z" fill="white"/>
<path d="M138.263 142.011C134.453 140.106 130.151 139.123 125.297 139.123C120.442 139.123 115.465 140.229 111.409 142.38C109.013 143.67 106.923 145.33 105.203 147.234V139.983H88.3652V200.819H106.001V170.708C106.001 166.837 106.616 163.765 107.845 161.429C109.074 159.094 110.795 157.312 113.068 156.083C115.28 154.854 117.8 154.301 120.565 154.301C123.33 154.301 127.509 155.469 129.66 157.804C131.811 160.139 132.855 163.765 132.855 168.681V200.819H150.491V165.977C150.491 159.77 149.385 154.731 147.235 150.737C145.022 146.804 142.073 143.855 138.263 141.888V142.011Z" fill="white"/>
<path d="M205.488 140.045L187.913 181.524L171.076 140.045H153.01L178.573 200.881H196.639L222.326 140.045H205.488Z" fill="white"/>
<path d="M279.905 153.871C277.14 149.201 273.33 145.575 268.537 142.994C263.744 140.414 258.398 139.123 252.437 139.123C246.476 139.123 240.7 140.475 235.784 143.117C230.868 145.821 226.997 149.508 224.231 154.24C221.466 158.971 220.114 164.379 220.114 170.401C220.114 176.423 221.528 181.831 224.416 186.501C227.304 191.233 231.298 194.92 236.521 197.624C241.745 200.327 247.767 201.679 254.711 201.679C261.655 201.679 265.096 200.819 269.274 199.16C273.515 197.439 277.017 195.043 279.782 191.847L270.381 181.647C268.353 183.613 266.079 185.088 263.621 186.071C261.163 187.054 258.336 187.546 255.202 187.546C252.068 187.546 248.32 186.87 245.678 185.579C243.035 184.289 240.946 182.384 239.471 179.865C238.611 178.513 238.058 176.976 237.689 175.317H283.715C283.777 174.58 283.838 173.781 283.961 172.859C284.022 171.999 284.084 171.2 284.084 170.524C284.084 163.949 282.671 158.357 279.905 153.687V153.871ZM244.571 154.486C246.845 153.195 249.549 152.519 252.56 152.519C255.571 152.519 258.213 153.195 260.487 154.486C262.761 155.776 264.543 157.62 265.772 159.955C266.632 161.491 267.185 163.212 267.431 165.178H237.505C237.812 163.273 238.365 161.552 239.164 160.016C240.454 157.62 242.236 155.776 244.51 154.486H244.571Z" fill="white"/>
</g>
<path d="M182.63 70.5452L117.37 33.0605V49.4063L168.435 78.7795L157.374 85.1703L182.569 99.6726L182.63 70.5452Z" fill="white"/>
<path d="M150.245 89.2876L66.6728 41.2949L66.6113 70.3609L150.184 118.415L150.245 89.2876Z" fill="white"/>
<path d="M149.815 14.3174L149.754 30.6631L200.819 60.0363L189.819 66.4272L215.014 80.868V51.802L182.445 33.0597L149.815 14.3174Z" fill="white"/>
<path d="M117.369 49.4063V33.0605L103.174 41.2949L117.369 49.4063Z" fill="#F2F2F9"/>
<path d="M135.62 22.5517L149.754 30.6631L149.815 14.3174L135.62 22.5517Z" fill="#F2F2F9"/>
<path d="M150.184 118.415L168.373 107.845L168.434 78.7793L150.245 89.2873L150.184 118.415Z" fill="#F2F2F9"/>
<path d="M215.014 51.8029V80.8689L233.203 70.3609L233.264 41.2949L215.014 51.8029Z" fill="#F2F2F9"/>
<path d="M182.568 99.6725L200.819 89.1031V60.0371L182.63 70.5451L182.568 99.6725Z" fill="#F2F2F9"/>
<defs>
<linearGradient id="paint0_linear_823_832" x1="66.6739" y1="66.3657" x2="233.327" y2="66.3657" gradientUnits="userSpaceOnUse">
<stop stop-color="#263676"/>
<stop offset="1" stop-color="#2A5387"/>
</linearGradient>
</defs>
</svg>
