<svg width="2000" height="695" viewBox="0 0 2000 695" fill="none" xmlns="http://www.w3.org/2000/svg">
<g opacity="0.1">
<path opacity="0.3" d="M1392.33 413.923L609.145 -80.6924V134.992L1221.98 522.576L1089.23 606.904L1391.59 798.263L1392.33 413.923Z" fill="white"/>
<path opacity="0.3" d="M1003.69 661.231L0.737452 27.9609L0 411.491L1002.95 1045.57L1003.69 661.231Z" fill="white"/>
<path opacity="0.3" d="M997.738 -329L997 -113.315L1609.83 274.268L1477.83 358.596L1780.19 549.145V165.615L1389.33 -81.6923L997.738 -329Z" fill="white"/>
<path d="M609.143 134.992V-80.6924L438.789 27.9608L609.143 134.992Z" fill="#F2F2F9"/>
<path d="M1002.95 1045.57L1221.24 906.106L1221.98 522.576L1003.69 661.231L1002.95 1045.57Z" fill="#F2F2F9"/>
<path d="M1780.97 166.615V550.145L1999.26 411.491L2000 27.9609L1780.97 166.615Z" fill="#F2F2F9"/>
<path d="M1391.59 798.264L1610.62 658.799V275.27L1392.33 413.924L1391.59 798.264Z" fill="#F2F2F9"/>
</g>
</svg>
