<svg width="57" height="57" viewBox="0 0 57 57" fill="none" xmlns="http://www.w3.org/2000/svg">
<circle cx="28.5" cy="28.5" r="28" fill="#FBD007" stroke="white"/>
<path d="M41 28.4873C41 27.4593 39.819 25.6203 39 25.0003C38.769 22.2313 36.15 20.1433 36 20.0003C35.738 18.6443 35.465 17.9883 35.09 17.9883C35.061 17.9883 35.03 17.9923 35 18.0003C34.336 18.1753 34 19.5003 34 21.0003C33.989 22.0603 33.549 22.0003 33 22.0003C32.073 22.0003 31 20.5003 31 20.5003L31.147 20.0603C31.34 19.4823 31.012 18.8603 30.426 18.6933L28 18.0003L26 20.0003C24.916 20.0003 23.864 20.3823 23.035 21.0803C22.125 21.7233 21.527 22.7993 21.03 23.7703C19.546 24.2723 18.073 24.9583 17 26.0623V27.7143C17 27.7143 17.246 29.1153 17.462 29.6413C17.985 30.7433 19 31.9983 19 33.4983C19 34.4983 19.7 35.0003 20.419 35.0003C20.852 35.0003 21.292 34.8183 21.589 34.4523C21.624 34.4523 21.657 34.4523 21.691 34.4523C24.5 34.4523 24.536 32.4993 27.5 32.4993C29.753 32.4993 30.5 33.4993 30.5 33.4993C30.508 33.5053 31.469 32.7233 31.846 33.0253C32.179 33.3333 32 34.4993 32 34.4993C32 34.4993 33.5 35.4993 34.5 35.9993C34.98 35.9913 38 35.4993 38 35.4993C39.01 33.0053 41 31.4993 41 28.4863V28.4873ZM36.641 33.6913C35.97 33.7963 35.326 33.8913 34.906 33.9483C34.622 33.7873 34.316 33.6033 34.034 33.4273C33.972 32.7413 33.746 32.0563 33.203 31.5553C32.782 31.1673 32.225 30.9533 31.635 30.9533C31.284 30.9533 30.939 31.0303 30.616 31.1493C29.891 30.7943 28.875 30.4993 27.501 30.4993C25.392 30.4993 24.239 31.2703 23.397 31.8323C22.658 32.4453 21.841 32.5053 20.896 32.4393C20.668 31.2743 20.112 30.2983 19.68 29.5403C19.216 28.8123 18.984 27.9723 19 26.9613C19.653 26.4723 20.522 26.0523 21.671 25.6633L22.41 25.4133C22.96 24.4903 23.407 23.2403 24.324 22.6073C24.985 21.9923 25.973 21.9623 26.828 21.9983L28.582 20.2443L28.942 20.3473L28.78 20.8323L29.373 21.6613C29.874 22.3993 31.405 24.1253 33.189 23.9993C34.384 23.9993 35.267 23.4533 35.7 22.5083C36.474 23.4043 36.938 24.3343 37.007 25.1643L37.081 26.0533L37.793 26.5923C38.207 26.9053 38.941 28.0853 39 28.4853C39 29.8563 38.419 30.7763 37.614 32.0493C37.299 32.5473 36.957 33.0883 36.64 33.6903L36.641 33.6913ZM38 37.0003C38 37.0003 38.023 37.6793 38 37.9633C37.929 38.6433 37.718 40.0003 36.846 40.0003C35.5 40.0003 35.154 38.3463 35 37.5003L38 37.0003Z" fill="#263676"/>
</svg>
