<svg width="57" height="57" viewBox="0 0 57 57" fill="none" xmlns="http://www.w3.org/2000/svg">
<circle cx="28.5" cy="28.5" r="28" fill="#FBD007" stroke="white"/>
<g clip-path="url(#clip0_823_882)">
<path d="M35.4167 18.8333H24.8411C24.2058 17.7379 23.0215 17 21.6667 17C19.6445 17 18 18.6445 18 20.6667V34.4167C18 36.9439 20.0561 39 22.5833 39H35.4167C37.9439 39 40 36.9439 40 34.4167V23.4167C40 20.8894 37.9439 18.8333 35.4167 18.8333ZM38.009 22.5H33.5833C33.0773 22.5 32.6667 22.0893 32.6667 21.5833V20.6667H35.4167C36.612 20.6667 37.6304 21.433 38.009 22.5ZM19.8333 20.6667C19.8333 19.6556 20.6556 18.8333 21.6667 18.8333C22.6778 18.8333 23.5 19.6556 23.5 20.6667V31.6667C23.5 32.6778 22.6778 33.5 21.6667 33.5C20.6556 33.5 19.8333 32.6778 19.8333 31.6667V20.6667ZM35.4167 37.1667H22.5833C21.2184 37.1667 20.0836 36.1675 19.87 34.8622C20.4017 35.1619 21.014 35.3333 21.6667 35.3333C23.6888 35.3333 25.3333 33.6888 25.3333 31.6667V20.6667H30.8333V21.5833C30.8333 23.0995 32.0672 24.3333 33.5833 24.3333H38.1667V34.4167C38.1667 35.9328 36.9328 37.1667 35.4167 37.1667ZM32.6667 27.0833C32.6667 27.5893 32.256 28 31.75 28C31.244 28 30.8333 27.5893 30.8333 27.0833C30.8333 26.5773 31.244 26.1667 31.75 26.1667C32.256 26.1667 32.6667 26.5773 32.6667 27.0833ZM29 27.0833C29 27.5893 28.5893 28 28.0833 28C27.5773 28 27.1667 27.5893 27.1667 27.0833C27.1667 26.5773 27.5773 26.1667 28.0833 26.1667C28.5893 26.1667 29 26.5773 29 27.0833ZM36.3333 27.0833C36.3333 27.5893 35.9227 28 35.4167 28C34.9107 28 34.5 27.5893 34.5 27.0833C34.5 26.5773 34.9107 26.1667 35.4167 26.1667C35.9227 26.1667 36.3333 26.5773 36.3333 27.0833ZM32.6667 30.75C32.6667 31.256 32.256 31.6667 31.75 31.6667C31.244 31.6667 30.8333 31.256 30.8333 30.75C30.8333 30.244 31.244 29.8333 31.75 29.8333C32.256 29.8333 32.6667 30.244 32.6667 30.75ZM29 30.75C29 31.256 28.5893 31.6667 28.0833 31.6667C27.5773 31.6667 27.1667 31.256 27.1667 30.75C27.1667 30.244 27.5773 29.8333 28.0833 29.8333C28.5893 29.8333 29 30.244 29 30.75ZM36.3333 30.75C36.3333 31.256 35.9227 31.6667 35.4167 31.6667C34.9107 31.6667 34.5 31.256 34.5 30.75C34.5 30.244 34.9107 29.8333 35.4167 29.8333C35.9227 29.8333 36.3333 30.244 36.3333 30.75ZM32.6667 34.4167C32.6667 34.9227 32.256 35.3333 31.75 35.3333C31.244 35.3333 30.8333 34.9227 30.8333 34.4167C30.8333 33.9107 31.244 33.5 31.75 33.5C32.256 33.5 32.6667 33.9107 32.6667 34.4167ZM29 34.4167C29 34.9227 28.5893 35.3333 28.0833 35.3333C27.5773 35.3333 27.1667 34.9227 27.1667 34.4167C27.1667 33.9107 27.5773 33.5 28.0833 33.5C28.5893 33.5 29 33.9107 29 34.4167ZM36.3333 34.4167C36.3333 34.9227 35.9227 35.3333 35.4167 35.3333C34.9107 35.3333 34.5 34.9227 34.5 34.4167C34.5 33.9107 34.9107 33.5 35.4167 33.5C35.9227 33.5 36.3333 33.9107 36.3333 34.4167Z" fill="#263676"/>
</g>
<defs>
<clipPath id="clip0_823_882">
<rect width="22" height="22" fill="white" transform="translate(18 17)"/>
</clipPath>
</defs>
</svg>
