<svg width="44" height="44" viewBox="0 0 44 44" fill="none" xmlns="http://www.w3.org/2000/svg">
<g clip-path="url(#clip0_823_858)">
<path d="M43.5604 22.0004C43.5604 10.0932 33.9077 0.44043 22.0004 0.44043C10.0932 0.44043 0.44043 10.0932 0.44043 22.0004C0.44043 33.9077 10.0932 43.5604 22.0004 43.5604C33.9077 43.5604 43.5604 33.9077 43.5604 22.0004Z" fill="#FBD007" stroke="white" stroke-width="0.88"/>
<g clip-path="url(#clip1_823_858)">
<path d="M28.9871 19.116C28.9543 18.3722 28.834 17.8608 28.6617 17.4176C28.4839 16.9472 28.2104 16.5261 27.8521 16.176C27.502 15.8205 27.0781 15.5442 26.6132 15.3692C26.1675 15.1969 25.6587 15.0766 24.9149 15.0438C24.1654 15.0082 23.9275 15 22.0268 15C20.126 15 19.8881 15.0082 19.1414 15.041C18.3976 15.0738 17.8861 15.1942 17.4431 15.3664C16.9726 15.5442 16.5515 15.8177 16.2014 16.176C15.8459 16.5261 15.5697 16.95 15.3946 17.4149C15.2223 17.8608 15.102 18.3694 15.0692 19.1133C15.0336 19.8627 15.0254 20.1006 15.0254 22.0014C15.0254 23.9021 15.0336 24.14 15.0664 24.8867C15.0992 25.6306 15.2196 26.142 15.3919 26.5851C15.5697 27.0555 15.8459 27.4766 16.2014 27.8267C16.5515 28.1823 16.9754 28.4585 17.4403 28.6335C17.8861 28.8058 18.3948 28.9261 19.1388 28.9589C19.8853 28.9918 20.1233 29 22.0241 29C23.9248 29 24.1628 28.9918 24.9094 28.9589C25.6533 28.9261 26.1647 28.8058 26.6077 28.6335C27.5486 28.2698 28.2925 27.5259 28.6562 26.5851C28.8285 26.1393 28.9489 25.6306 28.9817 24.8867C29.0145 24.14 29.0227 23.9021 29.0227 22.0014C29.0227 20.1006 29.0199 19.8627 28.9871 19.116ZM27.7264 24.832C27.6962 25.5157 27.5814 25.8849 27.4857 26.1311C27.2504 26.741 26.7664 27.225 26.1565 27.4603C25.9103 27.556 25.5384 27.6709 24.8574 27.7009C24.119 27.7338 23.8975 27.7419 22.0295 27.7419C20.1616 27.7419 19.9373 27.7338 19.2016 27.7009C18.5178 27.6709 18.1486 27.556 17.9025 27.4603C17.599 27.3481 17.3227 27.1703 17.0985 26.9379C16.866 26.7109 16.6882 26.4374 16.5761 26.1339C16.4803 25.8877 16.3655 25.5157 16.3355 24.8348C16.3026 24.0964 16.2945 23.8748 16.2945 22.0068C16.2945 20.1389 16.3026 19.9146 16.3355 19.179C16.3655 18.4952 16.4803 18.126 16.5761 17.8799C16.6882 17.5763 16.866 17.3001 17.1013 17.0758C17.3282 16.8433 17.6017 16.6655 17.9053 16.5534C18.1514 16.4577 18.5234 16.3429 19.2044 16.3128C19.9428 16.28 20.1643 16.2717 22.0322 16.2717C23.9029 16.2717 24.1244 16.28 24.8602 16.3128C25.5439 16.3429 25.9131 16.4577 26.1592 16.5534C26.4628 16.6655 26.739 16.8433 26.9633 17.0758C27.1957 17.3028 27.3735 17.5763 27.4857 17.8799C27.5814 18.126 27.6962 18.4979 27.7264 19.179C27.7592 19.9174 27.7674 20.1389 27.7674 22.0068C27.7674 23.8748 27.7592 24.0936 27.7264 24.832Z" fill="#263676"/>
<path d="M22.0261 18.4043C20.0406 18.4043 18.4297 20.0151 18.4297 22.0007C18.4297 23.9863 20.0406 25.5971 22.0261 25.5971C24.0117 25.5971 25.6225 23.9863 25.6225 22.0007C25.6225 20.0151 24.0117 18.4043 22.0261 18.4043ZM22.0261 24.3336C20.738 24.3336 19.6932 23.2889 19.6932 22.0007C19.6932 20.7125 20.738 19.6678 22.0261 19.6678C23.3143 19.6678 24.359 20.7125 24.359 22.0007C24.359 23.2889 23.3143 24.3336 22.0261 24.3336Z" fill="#263676"/>
<path d="M26.6041 18.2624C26.6041 18.7261 26.2282 19.102 25.7644 19.102C25.3007 19.102 24.9248 18.7261 24.9248 18.2624C24.9248 17.7987 25.3007 17.4229 25.7644 17.4229C26.2282 17.4229 26.6041 17.7987 26.6041 18.2624Z" fill="#263676"/>
</g>
</g>
<defs>
<clipPath id="clip0_823_858">
<rect width="44" height="44" fill="white"/>
</clipPath>
<clipPath id="clip1_823_858">
<rect width="14" height="14" fill="white" transform="translate(15 15)"/>
</clipPath>
</defs>
</svg>
