<svg width="44" height="44" viewBox="0 0 44 44" fill="none" xmlns="http://www.w3.org/2000/svg">
<g clip-path="url(#clip0_823_849)">
<path d="M43.5595 22.0004C43.5595 10.0932 33.9067 0.44043 21.9995 0.44043C10.0922 0.44043 0.439453 10.0932 0.439453 22.0004C0.439453 33.9077 10.0922 43.5604 21.9995 43.5604C33.9067 43.5604 43.5595 33.9077 43.5595 22.0004Z" fill="#FBD007" stroke="white" stroke-width="0.88"/>
<path d="M29.0396 29.0393L29.0396 23.8825C29.0396 21.3481 28.494 19.4121 25.5372 19.4121C24.1116 19.4121 23.1612 20.1865 22.774 20.9257L22.7388 20.9257L22.7388 19.6409L19.9404 19.6409L19.9404 29.0393L22.862 29.0393L22.862 24.3753C22.862 23.1433 23.0908 21.9641 24.6044 21.9641C26.1004 21.9641 26.118 23.3545 26.118 24.4457L26.118 29.0217L29.0396 29.0217L29.0396 29.0393Z" fill="#263676"/>
<path d="M15.1885 19.6416L18.1101 19.6416L18.1101 29.04L15.1885 29.04L15.1885 19.6416Z" fill="#263676"/>
<path d="M16.6496 14.96C15.7168 14.96 14.96 15.7168 14.96 16.6496C14.96 17.5824 15.7168 18.3568 16.6496 18.3568C17.5824 18.3568 18.3392 17.5824 18.3392 16.6496C18.3392 15.7168 17.5824 14.96 16.6496 14.96Z" fill="#263676"/>
</g>
<defs>
<clipPath id="clip0_823_849">
<rect width="44" height="44" fill="white"/>
</clipPath>
</defs>
</svg>
