<svg width="44" height="44" viewBox="0 0 44 44" fill="none" xmlns="http://www.w3.org/2000/svg">
<g clip-path="url(#clip0_823_867)">
<path d="M43.5604 22.0004C43.5604 10.0932 33.9077 0.44043 22.0004 0.44043C10.0932 0.44043 0.44043 10.0932 0.44043 22.0004C0.44043 33.9077 10.0932 43.5604 22.0004 43.5604C33.9077 43.5604 43.5604 33.9077 43.5604 22.0004Z" fill="#FBD007" stroke="white" stroke-width="0.88"/>
<g clip-path="url(#clip1_823_867)">
<path d="M22.6546 28.5693V22.1837H24.7972L25.1186 19.6944H22.6546V18.1054C22.6546 17.3849 22.8539 16.8939 23.8882 16.8939L25.2053 16.8933V14.6668C24.9776 14.6372 24.1957 14.5693 23.2857 14.5693C21.3855 14.5693 20.0846 15.7292 20.0846 17.8588V19.6944H17.9355V22.1837H20.0846V28.5693H22.6546Z" fill="#263676"/>
</g>
</g>
<defs>
<clipPath id="clip0_823_867">
<rect width="44" height="44" fill="white"/>
</clipPath>
<clipPath id="clip1_823_867">
<rect width="14" height="14" fill="white" transform="translate(14.5703 14.5693)"/>
</clipPath>
</defs>
</svg>
